<svg width="16" height="16" viewBox="0 0 16 16" fill="none" xmlns="http://www.w3.org/2000/svg">
<path d="M9.36322 1.35526L9.36324 1.35526L9.36126 1.35129C8.81596 0.260694 7.20515 0.260694 6.65985 1.35129L6.65983 1.35128L6.65789 1.35526L0.877331 13.1961C0.597943 13.6989 0.688011 14.2709 0.935909 14.6893C1.18581 15.111 1.64879 15.4663 2.22402 15.4663H13.7038C14.3053 15.4663 14.7952 15.1317 15.067 14.7C15.3338 14.2763 15.4238 13.7001 15.1438 13.1961L9.36322 1.35526ZM7.5439 5.66656C7.5439 5.49262 7.59984 5.38392 7.66388 5.31989C7.72791 5.25585 7.83661 5.19991 8.01055 5.19991C8.1845 5.19991 8.2932 5.25585 8.35723 5.31989C8.42127 5.38392 8.47721 5.49262 8.47721 5.66656V8.93316C8.47721 9.1071 8.42127 9.2158 8.35723 9.27983C8.2932 9.34387 8.1845 9.39981 8.01055 9.39981C7.83661 9.39981 7.72791 9.34387 7.66388 9.27983C7.59984 9.2158 7.5439 9.1071 7.5439 8.93316V5.66656ZM8.01055 12.7597C7.70829 12.7597 7.45057 12.502 7.45057 12.1997C7.45057 11.8975 7.70829 11.6398 8.01055 11.6398C8.31281 11.6398 8.57054 11.8975 8.57054 12.1997C8.57054 12.502 8.31281 12.7597 8.01055 12.7597Z" fill="#EF3535" stroke="#0F0F0F" stroke-width="0.933313"/>
</svg>
