<svg width="16" height="16" viewBox="0 0 16 16" fill="none" xmlns="http://www.w3.org/2000/svg">
<g clip-path="url(#clip0_26815_24170)">
<path d="M11.3761 0H7.16272L0 7.16272L5.05603 12.2187L12.2187 5.05603V0.842672C12.2187 0.619179 12.13 0.404854 11.972 0.246827C11.8139 0.0887924 11.5996 0 11.3761 0ZM9.69073 3.79203C9.44071 3.79203 9.19634 3.71788 8.98845 3.57899C8.78065 3.4401 8.6186 3.2427 8.52287 3.01174C8.42723 2.78078 8.4022 2.52662 8.45099 2.28143C8.49978 2.03623 8.6202 1.811 8.79691 1.63422C8.9737 1.45744 9.19895 1.33706 9.44417 1.28829C9.68938 1.23951 9.94345 1.26454 10.1744 1.36022C10.4054 1.45589 10.6028 1.61791 10.7417 1.82578C10.8806 2.03365 10.9547 2.27802 10.9547 2.52802C10.9547 2.86325 10.8216 3.18476 10.5846 3.42181C10.3475 3.65886 10.0259 3.79203 9.69073 3.79203Z" fill="white"/>
<path d="M12.8779 1.21777C12.9196 1.23529 12.9611 1.25521 13 1.2793C13.1953 1.40051 13.3344 1.5943 13.3857 1.81738L14.3545 6.02637L8.50195 15L6.21094 13.4531L13.2842 5.34375L12.8779 1.21777Z" fill="white"/>
<path d="M15.9556 6.7602L11.4953 16.0172L10.1445 15.2856L15.2114 6.42458L14.4886 3.55957L15.9556 6.7602Z" fill="white"/>
</g>
<defs>
<clipPath id="clip0_26815_24170">
<rect width="16" height="16" fill="white"/>
</clipPath>
</defs>
</svg>
