<svg width="16" height="16" viewBox="0 0 16 16" fill="none" xmlns="http://www.w3.org/2000/svg">
<path opacity="0.5" fill-rule="evenodd" clip-rule="evenodd" d="M3 2.81995V11C3.26229 10.4892 3.65075 10.0539 4.12854 9.73535C4.60633 9.41683 5.15757 9.2257 5.72998 9.18005C6.56407 9.17212 7.37199 9.47105 8 10.02V4.02002H10L13 7.02002V2.83997C13 2.83997 12.55 3.75 10.73 3.75C8.90998 3.75 8.44998 1.02002 5.72998 1.02002C5.15956 1.06366 4.60969 1.25174 4.13208 1.56665C3.65447 1.88156 3.26485 2.31286 3 2.81995V2.81995Z" fill="white"/>
<path d="M2 2H1V15H2V2Z" fill="white"/>
<path d="M15.65 11.69L9 6L9.09 14.76L11.03 12.08L12.91 16L14.31 15.33L12.44 11.43L15.65 11.69Z" fill="white"/>
</svg>
